<?xml version="1.0" encoding="UTF-8"?>
<svg width="404.47" height="357.67" version="1.1" viewBox="0 0 404.47 357.67" xml:space="preserve" xmlns="http://www.w3.org/2000/svg"><defs><clipPath id="a"><path d="m0 480h640v-480h-640z"/></clipPath></defs><g transform="matrix(1.3333 0 0 -1.3333 -77.801 475.35)"><g transform="translate(361.7 356.51)"><path d="m0 0-47.195-83.648-43.162 27.346z" fill="#1297cc"/></g><g transform="translate(281.78 288.95)"><path d="m0 0-18.499-16.086 6.404 24.818z" fill="#11a9cc"/></g><g transform="translate(249.05 303.66)"><path d="m0 0 10.672-29.416 5.692 26.428 94.151 55.382z" fill="#057fa5"/></g><g transform="translate(211.11 315.84)"><path d="m0 0 35.336-9.422 111.7 48.719z" fill="#1297cc"/></g><g clip-path="url(#a)"><g transform="translate(257.68 272.97)"><path d="m0 0c-1.867-0.33-3.846-0.672-5.909-1.04" fill="none" stroke="#fff" stroke-miterlimit="10" stroke-width="4"/></g><g transform="translate(239.72 269.59)"><path d="m0 0c-21.568-4.696-46.124-13.451-50.283-35.804-12.162-60.811 82.432-52.027 91.892-107.43 4.054-24.325-4.73-33.785-29.73-35.811-19.594-1.351-35.135 2.026-52.027 11.486-14.865 8.108-22.973 18.244-35.81 29.054-13.514 11.486-26.352 29.73-44.595 31.081-15.541 1.352-16.217-10.135-20.946-22.972-3.378-8.109-3.378-19.595-10.811-25.676-4.402-3.602-10.7-4.36-16.929-4.378" fill="none" stroke="#fff" stroke-dasharray="12.275, 12.275" stroke-miterlimit="10" stroke-width="4"/></g><g transform="translate(64.347 109.28)"><path d="m0 0c-2.119 0.085-4.147 0.175-5.996 0.175" fill="none" stroke="#fff" stroke-miterlimit="10" stroke-width="4"/></g><g transform="translate(257.68 272.97)"><path d="m0 0c-1.265-0.223-2.581-0.453-3.939-0.691" fill="none" stroke="#11a9cc" stroke-miterlimit="10" stroke-width="3"/></g><g transform="translate(245.93 270.86)"><path d="m0 0c-22.789-4.384-51.931-12.536-56.496-37.072-12.162-60.812 82.432-52.028 91.892-107.43 4.054-24.324-4.73-33.784-29.73-35.81-19.595-1.352-35.135 2.026-52.027 11.486-14.865 8.107-22.973 18.243-35.811 29.054-13.514 11.486-26.351 29.729-44.595 31.081-15.54 1.351-16.216-10.135-20.945-22.973-3.379-8.108-3.379-19.595-10.811-25.676-5.389-4.409-13.62-4.555-21.087-4.303" fill="none" stroke="#11a9cc" stroke-dasharray="7.938, 7.938" stroke-miterlimit="10" stroke-width="3"/></g><g transform="translate(62.35 109.36)"><path d="m0 0c-1.397 0.053-2.74 0.095-3.999 0.095" fill="none" stroke="#11a9cc" stroke-miterlimit="10" stroke-width="3"/></g></g></g></svg>
